<svg width="210" height="147" viewBox="0 0 210 147" fill="none" xmlns="http://www.w3.org/2000/svg">
<g clip-path="url(#clip0_89_405)">
<path fill-rule="evenodd" clip-rule="evenodd" d="M87.1781 16.6221C93.9008 9.62381 103.257 5.29008 113.594 5.29008C127.376 5.29008 139.321 12.9468 145.752 24.3554C151.462 21.8032 157.645 20.4856 163.899 20.4888C188.707 20.4888 208.844 40.7792 208.844 65.8168C208.844 90.8544 188.707 111.145 163.899 111.145C160.867 111.145 157.911 110.84 155.017 110.264C149.389 120.295 138.632 127.109 126.381 127.109C121.393 127.119 116.469 125.988 111.986 123.801C106.282 137.201 92.9973 146.619 77.5306 146.619C61.3748 146.619 47.6692 136.435 42.386 122.117C40.0346 122.613 37.6378 122.863 35.2346 122.861C16.0161 122.861 0.4729 107.088 0.4729 87.7167C0.4729 74.7002 7.47118 63.3682 17.8538 57.2428C15.6511 52.1686 14.5173 46.6952 14.5231 41.1636C14.5231 18.8058 32.6696 0.73584 55.0274 0.73584C68.1204 0.73584 79.8353 6.9761 87.1858 16.6619" fill="white"/>
<path fill-rule="evenodd" clip-rule="evenodd" d="M30.8245 76.3453C30.6935 76.6868 30.8712 76.758 30.9133 76.8185C31.3045 77.1018 31.7019 77.307 32.1001 77.5375C34.2287 78.663 36.2347 78.9923 38.3327 78.9923C42.6052 78.9923 45.2621 76.7182 45.2621 73.0583V72.9863C45.2621 69.602 42.2606 68.3693 39.4582 67.4888L39.0915 67.3701C36.9705 66.6825 35.1406 66.0837 35.1406 64.6902V64.619C35.1406 63.4245 36.2125 62.544 37.8664 62.544C39.704 62.544 41.8938 63.1558 43.295 63.9299C43.295 63.9299 43.71 64.1979 43.8609 63.7974C43.9428 63.5807 44.6572 61.6688 44.7337 61.4545C44.8149 61.2301 44.6725 61.0609 44.5262 60.9736C42.9183 59.9936 40.6979 59.3274 38.4008 59.3274L37.9743 59.3289C34.0617 59.3289 31.3283 61.6949 31.3283 65.0792V65.1519C31.3283 68.72 34.345 69.8838 37.1627 70.6878L37.616 70.8286C39.668 71.4596 41.4444 72.0078 41.4444 73.4473V73.5192C41.4444 74.8438 40.2882 75.8316 38.4353 75.8316C37.7148 75.8316 35.4185 75.8193 32.9301 74.2466C32.6292 74.0713 32.4576 73.9449 32.2256 73.8033C32.1031 73.729 31.7969 73.595 31.6636 73.9962L30.8214 76.3392M93.3772 76.3392C93.2462 76.6807 93.4239 76.7519 93.4675 76.8124C93.8572 77.0957 94.2562 77.3009 94.6543 77.5314C96.7829 78.6569 98.789 78.9862 100.887 78.9862C105.159 78.9862 107.816 76.7121 107.816 73.0522V72.9802C107.816 69.5959 104.822 68.3632 102.012 67.4826L101.646 67.364C99.5248 66.6764 97.6948 66.0776 97.6948 64.6841V64.6129C97.6948 63.4184 98.7668 62.5379 100.421 62.5379C102.258 62.5379 104.44 63.1497 105.849 63.9238C105.849 63.9238 106.264 64.1918 106.416 63.7913C106.497 63.5746 107.212 61.6627 107.281 61.4483C107.363 61.224 107.22 61.0548 107.074 60.9675C105.466 59.9874 103.246 59.3213 100.949 59.3213L100.522 59.3228C96.6091 59.3228 93.8756 61.6888 93.8756 65.0731V65.1458C93.8756 68.7138 96.8924 69.8777 99.7101 70.6816L100.163 70.8225C102.222 71.4534 103.991 72.0017 103.991 73.4411V73.5131C103.991 74.8377 102.835 75.8254 100.982 75.8254C100.26 75.8254 97.9574 75.8132 95.4767 74.2405C95.1757 74.0652 94.9996 73.9442 94.7715 73.7972C94.6941 73.7482 94.3335 73.6073 94.2102 73.9901L93.368 76.3331M136.093 69.1664C136.093 71.2337 135.707 72.8646 134.952 74.0207C134.198 75.1616 133.061 75.7205 131.476 75.7205C129.891 75.7205 128.758 75.1662 128.015 74.0284C127.267 72.8799 126.889 71.2413 126.889 69.174C126.889 67.1067 127.269 65.4835 128.015 64.3426C128.756 63.2094 129.883 62.6658 131.476 62.6658C133.068 62.6658 134.202 63.2148 134.952 64.3426C135.711 65.4835 136.093 67.1067 136.093 69.174M139.661 65.338C139.309 64.1512 138.765 63.1099 138.038 62.237C137.309 61.3641 136.391 60.6597 135.296 60.1543C134.209 59.6452 132.923 59.3887 131.468 59.3887C130.013 59.3887 128.735 59.6467 127.64 60.1543C126.552 60.6628 125.626 61.3641 124.899 62.237C124.173 63.1099 123.628 64.1512 123.275 65.338C122.927 66.5171 122.75 67.8035 122.75 69.174C122.75 70.5446 122.927 71.8309 123.275 73.0101C123.625 74.1969 124.171 75.2382 124.899 76.111C125.627 76.9839 126.552 77.6807 127.64 78.1784C128.735 78.6745 130.021 78.9272 131.468 78.9272C132.915 78.9272 134.202 78.6745 135.289 78.1784C136.376 77.6822 137.303 76.9839 138.03 76.111C138.757 75.2382 139.301 74.1969 139.653 73.0101C140.001 71.8309 140.178 70.5446 140.178 69.174C140.178 67.8111 140.001 66.5171 139.653 65.338M168.979 75.1386C168.861 74.7918 168.523 74.9227 168.523 74.9227C168.005 75.121 167.451 75.3048 166.861 75.3967C166.267 75.4901 165.606 75.5368 164.909 75.5368C163.186 75.5368 161.808 75.023 160.828 74.0054C159.84 72.9871 159.289 71.3485 159.297 69.1281C159.302 67.1067 159.79 65.5906 160.667 64.4268C161.532 63.2783 162.865 62.6811 164.626 62.6811C166.096 62.6811 167.221 62.8518 168.4 63.2209C168.4 63.2209 168.68 63.3426 168.814 62.9743C169.127 62.1091 169.358 61.4889 169.694 60.5395C169.789 60.2677 169.557 60.1528 169.472 60.1199C169.009 59.9392 167.917 59.6429 167.09 59.5181C166.317 59.4002 165.421 59.3389 164.411 59.3389C162.91 59.3389 161.578 59.5954 160.437 60.1038C159.296 60.6115 158.331 61.3136 157.565 62.1864C156.8 63.0593 156.218 64.1006 155.827 65.2874C155.441 66.4666 155.245 67.7606 155.245 69.1311C155.245 72.0866 156.042 74.4832 157.619 76.2366C159.196 77.9977 161.57 78.8859 164.663 78.8859C166.493 78.8859 168.369 78.516 169.717 77.9824C169.717 77.9824 169.974 77.8583 169.862 77.5582L168.982 75.1386M175.222 67.1756C175.393 66.0271 175.707 65.07 176.202 64.3273C176.942 63.1941 178.07 62.5739 179.655 62.5739C181.24 62.5739 182.289 63.1971 183.039 64.3273C183.537 65.0738 183.755 66.0654 183.836 67.1756L175.184 67.1741L175.222 67.1756ZM187.243 64.6489C186.939 63.508 186.186 62.3518 185.696 61.8235C184.915 60.9889 184.157 60.3994 183.399 60.0778C182.305 59.6124 181.128 59.3736 179.938 59.3757C178.43 59.3757 177.06 59.6306 175.949 60.149C174.839 60.6712 173.905 61.3817 173.17 62.2699C172.436 63.1581 171.884 64.2071 171.531 65.4092C171.179 66.596 171.001 67.8976 171.001 69.2605C171.001 70.6541 171.186 71.9481 171.549 73.1195C171.916 74.2987 172.506 75.3323 173.302 76.1899C174.099 77.0551 175.117 77.7289 176.342 78.2036C177.559 78.6745 179.037 78.9188 180.729 78.9134C184.221 78.9019 186.059 78.1248 186.809 77.7036C186.943 77.6286 187.069 77.4992 186.911 77.1263L186.123 74.9135C186.002 74.5835 185.668 74.703 185.668 74.703C184.803 75.0261 183.578 75.6065 180.706 75.5988C178.831 75.5957 177.445 75.0422 176.572 74.1746C175.684 73.2865 175.239 71.9925 175.171 70.1548L187.268 70.164C187.268 70.164 187.587 70.161 187.62 69.8501C187.633 69.7215 188.034 67.3693 187.259 64.6512L187.243 64.6489ZM78.5169 67.1756C78.6877 66.0271 79.0031 65.07 79.497 64.3273C80.2382 63.1941 81.3652 62.5739 82.9502 62.5739C84.5351 62.5739 85.5841 63.1971 86.3345 64.3273C86.8314 65.0738 87.0489 66.0654 87.1308 67.1756L78.4786 67.1741L78.5169 67.1756ZM90.538 64.6489C90.2348 63.508 89.4814 62.3518 88.9914 61.8235C88.2104 60.9889 87.4524 60.3994 86.6943 60.0778C85.6 59.6124 84.4227 59.3736 83.2335 59.3757C81.7251 59.3757 80.3545 59.6306 79.2443 60.149C78.1341 60.6712 77.2 61.3817 76.4649 62.2699C75.7322 63.1581 75.1786 64.2071 74.8264 65.4092C74.4749 66.596 74.298 67.8976 74.298 69.2605C74.298 70.6541 74.481 71.9481 74.8463 73.1195C75.2123 74.2987 75.8034 75.3323 76.592 76.1899C77.3883 77.0551 78.4067 77.7289 79.6317 78.2036C80.8492 78.6745 82.3193 78.9188 84.0191 78.9134C87.5106 78.9019 89.3482 78.1248 90.0985 77.7036C90.2318 77.6286 90.3589 77.4992 90.2004 77.1263L89.4117 74.9135C89.29 74.5835 88.9562 74.703 88.9562 74.703C88.0909 75.0261 86.8659 75.6065 83.9946 75.5988C82.1263 75.5957 80.7328 75.0422 79.8599 74.1746C78.9717 73.2865 78.5276 71.9925 78.4587 70.1548L90.5564 70.164C90.5564 70.164 90.8749 70.161 90.9079 69.8501C90.9209 69.7215 91.3221 67.3693 90.5465 64.6512L90.538 64.6489ZM52.4073 75.0621C51.9334 74.6838 51.8675 74.5912 51.7106 74.3454C51.4709 73.9756 51.3484 73.4496 51.3484 72.7758C51.3484 71.7191 51.7006 70.9534 52.428 70.4404C52.4204 70.442 53.4693 69.5369 55.9348 69.5676C57.0322 69.5872 58.127 69.6806 59.2119 69.847V75.3369H59.2134C59.2134 75.3369 57.6821 75.667 55.9517 75.7711C53.4938 75.9189 52.4066 75.0636 52.4142 75.0659L52.4073 75.0621ZM57.2158 66.5631C56.7258 66.5271 56.0902 66.5095 55.3322 66.5095C54.2986 66.5095 53.2955 66.6381 52.3614 66.8908C51.4196 67.145 50.5697 67.5385 49.8423 68.0623C49.1129 68.5826 48.513 69.2637 48.0889 70.053C47.6609 70.8493 47.4427 71.7834 47.4427 72.8401C47.4427 73.912 47.6288 74.8385 47.9963 75.5965C48.3564 76.3484 48.8986 76.9984 49.5736 77.4877C50.2451 77.9762 51.0743 78.3376 52.0314 78.552C52.9808 78.7687 54.0528 78.8782 55.2319 78.8782C56.4723 78.8782 57.7051 78.7741 58.8995 78.5727C59.9168 78.3972 60.9303 78.2001 61.9393 77.9816C62.342 77.8889 62.7892 77.7672 62.7892 77.7672C63.0878 77.6914 63.0648 77.3721 63.0648 77.3721L63.0579 66.3464C63.0579 63.9268 62.4117 62.1275 61.1361 61.0173C59.865 59.907 58.0044 59.3481 55.5926 59.3481C54.6891 59.3481 53.2266 59.4706 52.3537 59.6459C52.3537 59.6459 49.7198 60.1574 48.6326 61.0088C48.6326 61.0088 48.3937 61.1559 48.5238 61.4889L49.3814 63.786C49.4878 64.0838 49.778 63.982 49.778 63.982C49.778 63.982 49.8691 63.946 49.9763 63.8824C52.2963 62.6191 55.2365 62.6573 55.2365 62.6573C56.5382 62.6573 57.5489 62.9215 58.2227 63.4383C58.8819 63.9444 59.218 64.7094 59.218 66.3173V66.828C58.1844 66.6779 57.2273 66.5914 57.2273 66.5914L57.2158 66.5631ZM154.457 60.3381C154.474 60.2977 154.483 60.2543 154.484 60.2103C154.484 60.1663 154.475 60.1227 154.458 60.0822C154.441 60.0416 154.416 60.0048 154.385 59.9741C154.354 59.9433 154.316 59.9192 154.275 59.9032C154.069 59.8251 153.043 59.6084 152.254 59.5594C150.738 59.4645 149.896 59.7202 149.138 60.0602C148.389 60.3978 147.56 60.9407 147.101 61.5685L147.099 60.0985C147.099 59.8963 146.956 59.7332 146.752 59.7332H143.659C143.459 59.7332 143.313 59.8963 143.313 60.0985V78.0919C143.313 78.1891 143.352 78.2822 143.421 78.351C143.489 78.4197 143.583 78.4584 143.68 78.4586H146.85C146.947 78.4584 147.04 78.4197 147.109 78.3509C147.177 78.2822 147.216 78.189 147.216 78.0919V69.0569C147.216 67.8471 147.349 66.645 147.615 65.887C147.877 65.1374 148.233 64.5394 148.671 64.1106C149.09 63.6965 149.602 63.3892 150.164 63.2148C150.692 63.0633 151.239 62.9865 151.788 62.9866C152.419 62.9866 153.112 63.1489 153.112 63.1489C153.345 63.1749 153.474 63.0325 153.553 62.8227C153.761 62.2707 154.35 60.6176 154.464 60.2883" fill="#00A1E0"/>
<path fill-rule="evenodd" clip-rule="evenodd" d="M124.85 52.0335C124.459 51.9151 124.06 51.8205 123.657 51.7502C123.114 51.6597 122.565 51.6171 122.015 51.6231C119.831 51.6231 118.109 52.2402 116.9 53.4592C115.699 54.669 114.882 56.512 114.472 58.9369L114.325 59.7554H111.583C111.583 59.7554 111.248 59.7416 111.178 60.1068L110.728 62.6182C110.696 62.8586 110.8 63.0087 111.121 63.0072H113.79L111.082 78.1239C110.87 79.3414 110.627 80.3429 110.358 81.1017C110.094 81.8505 109.835 82.4117 109.516 82.8191C109.208 83.2134 108.915 83.5036 108.411 83.6728C107.994 83.8129 107.515 83.8772 106.989 83.8772C106.697 83.8772 106.308 83.8282 106.021 83.7708C105.734 83.7141 105.584 83.6498 105.369 83.5595C105.369 83.5595 105.056 83.44 104.933 83.754C104.833 84.0105 104.121 85.9668 104.037 86.2087C103.951 86.4476 104.072 86.636 104.223 86.6903C104.578 86.8174 104.843 86.8986 105.326 87.0127C105.999 87.1712 106.565 87.1811 107.096 87.1811C108.208 87.1811 109.221 87.0249 110.061 86.7217C110.906 86.4162 111.642 85.8841 112.293 85.1636C112.996 84.3864 113.439 83.5725 113.862 82.4623C114.281 81.362 114.638 79.996 114.923 78.4042L117.645 63.0072H121.623C121.623 63.0072 121.958 63.0194 122.028 62.6557L122.478 60.1443C122.51 59.9039 122.407 59.7538 122.084 59.7554H118.223C118.242 59.6681 118.417 58.3098 118.861 57.0311C119.05 56.4852 119.406 56.0449 119.707 55.7424C119.989 55.4544 120.336 55.2385 120.719 55.1131C121.138 54.9833 121.576 54.9203 122.015 54.9262C122.379 54.9262 122.736 54.9699 123.007 55.0265C123.382 55.1062 123.527 55.1483 123.625 55.1774C124.019 55.2976 124.072 55.1812 124.149 54.9906L125.072 52.4546C125.167 52.1821 124.936 52.0672 124.85 52.0335ZM70.8901 78.1561C70.8901 78.3582 70.7462 78.5229 70.5441 78.5229H67.3412C67.1383 78.5229 66.9944 78.3582 66.9944 78.1561V52.3773C66.9944 52.1759 67.1383 52.0128 67.3412 52.0128H70.5441C70.7462 52.0128 70.8901 52.1759 70.8901 52.3773V78.1561Z" fill="#00A1E0"/>
</g>
<defs>
<clipPath id="clip0_89_405">
<rect width="209.03" height="146.244" fill="white" transform="translate(0.656738 0.313477)"/>
</clipPath>
</defs>
</svg>
