<svg width="210" height="147" viewBox="0 0 210 147" fill="none" xmlns="http://www.w3.org/2000/svg">
<g clip-path="url(#clip0_89_403)">
<mask id="mask0_89_403" style="mask-type:luminance" maskUnits="userSpaceOnUse" x="0" y="0" width="209" height="147">
<path d="M0.359619 0.696289H208.624V146.175H0.359619V0.696289Z" fill="#00A1E0"/>
</mask>
<g mask="url(#mask0_89_403)">
<path fill-rule="evenodd" clip-rule="evenodd" d="M86.8351 16.6221C93.5577 9.62381 102.914 5.29008 113.251 5.29008C127.033 5.29008 138.978 12.9468 145.409 24.3554C151.118 21.8032 157.302 20.4856 163.556 20.4888C188.364 20.4888 208.501 40.7792 208.501 65.8168C208.501 90.8544 188.364 111.145 163.556 111.145C160.524 111.145 157.568 110.84 154.674 110.264C149.046 120.295 138.289 127.109 126.038 127.109C121.05 127.119 116.126 125.988 111.643 123.801C105.939 137.201 92.6542 146.619 77.1876 146.619C61.0318 146.619 47.3262 136.435 42.043 122.117C39.6916 122.613 37.2948 122.863 34.8916 122.861C15.6731 122.861 0.129883 107.088 0.129883 87.7167C0.129883 74.7002 7.12817 63.3682 17.5107 57.2428C15.3081 52.1686 14.1743 46.6952 14.18 41.1636C14.18 18.8058 32.3266 0.73584 54.6843 0.73584C67.7774 0.73584 79.4923 6.9761 86.8428 16.6619" fill="#00A1E0"/>
</g>
<path fill-rule="evenodd" clip-rule="evenodd" d="M30.4812 76.3453C30.3503 76.6868 30.5279 76.758 30.57 76.8185C30.9613 77.1018 31.3587 77.307 31.7568 77.5375C33.8854 78.663 35.8915 78.9923 37.9894 78.9923C42.2619 78.9923 44.9188 76.7182 44.9188 73.0583V72.9863C44.9188 69.602 41.9173 68.3693 39.115 67.4888L38.7482 67.3701C36.6273 66.6825 34.7973 66.0837 34.7973 64.6902V64.619C34.7973 63.4245 35.8693 62.544 37.5231 62.544C39.3607 62.544 41.5506 63.1558 42.9518 63.9299C42.9518 63.9299 43.3668 64.1979 43.5176 63.7974C43.5995 63.5807 44.3139 61.6688 44.3905 61.4545C44.4716 61.2301 44.3292 61.0609 44.183 60.9736C42.5751 59.9936 40.3546 59.3274 38.0576 59.3274L37.6311 59.3289C33.7185 59.3289 30.985 61.6949 30.985 65.0792V65.1519C30.985 68.72 34.0018 69.8838 36.8195 70.6878L37.2727 70.8286C39.3248 71.4596 41.1011 72.0078 41.1011 73.4473V73.5192C41.1011 74.8438 39.945 75.8316 38.092 75.8316C37.3715 75.8316 35.0753 75.8193 32.5868 74.2466C32.2859 74.0713 32.1144 73.9449 31.8824 73.8033C31.7599 73.729 31.4536 73.595 31.3204 73.9962L30.4781 76.3392M93.0339 76.3392C92.903 76.6807 93.0806 76.7519 93.1243 76.8124C93.514 77.0957 93.9129 77.3009 94.3111 77.5314C96.4396 78.6569 98.4457 78.9862 100.544 78.9862C104.816 78.9862 107.473 76.7121 107.473 73.0522V72.9802C107.473 69.5959 104.479 68.3632 101.669 67.4826L101.302 67.364C99.1815 66.6764 97.3516 66.0776 97.3516 64.6841V64.6129C97.3516 63.4184 98.4235 62.5379 100.077 62.5379C101.915 62.5379 104.097 63.1497 105.506 63.9238C105.506 63.9238 105.921 64.1918 106.073 63.7913C106.154 63.5746 106.869 61.6627 106.938 61.4483C107.02 61.224 106.877 61.0548 106.731 60.9675C105.123 59.9874 102.903 59.3213 100.606 59.3213L100.178 59.3228C96.2658 59.3228 93.5324 61.6888 93.5324 65.0731V65.1458C93.5324 68.7138 96.5491 69.8777 99.3668 70.6816L99.8193 70.8225C101.879 71.4534 103.648 72.0017 103.648 73.4411V73.5131C103.648 74.8377 102.492 75.8254 100.639 75.8254C99.9166 75.8254 97.6142 75.8132 95.1334 74.2405C94.8325 74.0652 94.6564 73.9442 94.4282 73.7972C94.3509 73.7482 93.9902 73.6073 93.867 73.9901L93.0247 76.3331M135.749 69.1664C135.749 71.2337 135.364 72.8646 134.609 74.0207C133.855 75.1616 132.717 75.7205 131.132 75.7205C129.548 75.7205 128.414 75.1662 127.672 74.0284C126.924 72.8799 126.546 71.2413 126.546 69.174C126.546 67.1067 126.926 65.4835 127.672 64.3426C128.413 63.2094 129.54 62.6658 131.132 62.6658C132.725 62.6658 133.858 63.2148 134.609 64.3426C135.368 65.4835 135.749 67.1067 135.749 69.174M139.318 65.338C138.966 64.1512 138.422 63.1099 137.694 62.237C136.966 61.3641 136.048 60.6597 134.953 60.1543C133.866 59.6452 132.58 59.3887 131.125 59.3887C129.67 59.3887 128.391 59.6467 127.296 60.1543C126.209 60.6628 125.283 61.3641 124.555 62.237C123.829 63.1099 123.284 64.1512 122.932 65.338C122.584 66.5171 122.407 67.8035 122.407 69.174C122.407 70.5446 122.584 71.8309 122.932 73.0101C123.282 74.1969 123.828 75.2382 124.555 76.111C125.283 76.9839 126.209 77.6807 127.296 78.1784C128.391 78.6745 129.678 78.9272 131.125 78.9272C132.572 78.9272 133.858 78.6745 134.946 78.1784C136.033 77.6822 136.959 76.9839 137.687 76.111C138.413 75.2382 138.958 74.1969 139.31 73.0101C139.657 71.8309 139.834 70.5446 139.834 69.174C139.834 67.8111 139.657 66.5171 139.31 65.338M168.635 75.1386C168.518 74.7918 168.18 74.9227 168.18 74.9227C167.661 75.121 167.108 75.3048 166.518 75.3967C165.924 75.4901 165.262 75.5368 164.566 75.5368C162.843 75.5368 161.465 75.023 160.485 74.0054C159.497 72.9871 158.946 71.3485 158.953 69.1281C158.959 67.1067 159.447 65.5906 160.324 64.4268C161.189 63.2783 162.521 62.6811 164.282 62.6811C165.753 62.6811 166.878 62.8518 168.057 63.2209C168.057 63.2209 168.337 63.3426 168.471 62.9743C168.784 62.1091 169.015 61.4889 169.351 60.5395C169.446 60.2677 169.213 60.1528 169.128 60.1199C168.666 59.9392 167.574 59.6429 166.747 59.5181C165.974 59.4002 165.078 59.3389 164.067 59.3389C162.567 59.3389 161.234 59.5954 160.093 60.1038C158.953 60.6115 157.988 61.3136 157.222 62.1864C156.456 63.0593 155.875 64.1006 155.484 65.2874C155.097 66.4666 154.902 67.7606 154.902 69.1311C154.902 72.0866 155.698 74.4832 157.276 76.2366C158.853 77.9977 161.227 78.8859 164.32 78.8859C166.15 78.8859 168.026 78.516 169.373 77.9824C169.373 77.9824 169.631 77.8583 169.519 77.5582L168.638 75.1386M174.879 67.1756C175.049 66.0271 175.364 65.07 175.859 64.3273C176.599 63.1941 177.727 62.5739 179.312 62.5739C180.897 62.5739 181.946 63.1971 182.696 64.3273C183.194 65.0738 183.411 66.0654 183.492 67.1756L174.84 67.1741L174.879 67.1756ZM186.9 64.6489C186.596 63.508 185.843 62.3518 185.353 61.8235C184.572 60.9889 183.814 60.3994 183.056 60.0778C181.962 59.6124 180.784 59.3736 179.595 59.3757C178.087 59.3757 176.716 59.6306 175.606 60.149C174.496 60.6712 173.562 61.3817 172.827 62.2699C172.092 63.1581 171.54 64.2071 171.188 65.4092C170.836 66.596 170.658 67.8976 170.658 69.2605C170.658 70.6541 170.843 71.9481 171.206 73.1195C171.572 74.2987 172.163 75.3323 172.959 76.1899C173.755 77.0551 174.774 77.7289 175.999 78.2036C177.216 78.6745 178.694 78.9188 180.386 78.9134C183.878 78.9019 185.715 78.1248 186.466 77.7036C186.6 77.6286 186.726 77.4992 186.568 77.1263L185.78 74.9135C185.659 74.5835 185.325 74.703 185.325 74.703C184.46 75.0261 183.234 75.6065 180.363 75.5988C178.487 75.5957 177.101 75.0422 176.229 74.1746C175.34 73.2865 174.896 71.9925 174.827 70.1548L186.925 70.164C186.925 70.164 187.244 70.161 187.276 69.8501C187.289 69.7215 187.691 67.3693 186.916 64.6512L186.9 64.6489ZM78.1737 67.1756C78.3444 66.0271 78.6599 65.07 79.1537 64.3273C79.8949 63.1941 81.022 62.5739 82.6069 62.5739C84.1919 62.5739 85.2409 63.1971 85.9912 64.3273C86.4881 65.0738 86.7056 66.0654 86.7875 67.1756L78.1354 67.1741L78.1737 67.1756ZM90.1948 64.6489C89.8916 63.508 89.1381 62.3518 88.6481 61.8235C87.8671 60.9889 87.1091 60.3994 86.3511 60.0778C85.2567 59.6124 84.0794 59.3736 82.8902 59.3757C81.3818 59.3757 80.0113 59.6306 78.9011 60.149C77.7908 60.6712 76.8567 61.3817 76.1216 62.2699C75.3889 63.1581 74.8353 64.2071 74.4831 65.4092C74.1316 66.596 73.9548 67.8976 73.9548 69.2605C73.9548 70.6541 74.1378 71.9481 74.503 73.1195C74.869 74.2987 75.4601 75.3323 76.2487 76.1899C77.0451 77.0551 78.0634 77.7289 79.2885 78.2036C80.5059 78.6745 81.976 78.9188 83.6758 78.9134C87.1673 78.9019 89.0049 78.1248 89.7553 77.7036C89.8885 77.6286 90.0156 77.4992 89.8571 77.1263L89.0685 74.9135C88.9467 74.5835 88.6129 74.703 88.6129 74.703C87.7477 75.0261 86.5226 75.6065 83.6513 75.5988C81.7831 75.5957 80.3895 75.0422 79.5167 74.1746C78.6285 73.2865 78.1844 71.9925 78.1155 70.1548L90.2132 70.164C90.2132 70.164 90.5317 70.161 90.5646 69.8501C90.5776 69.7215 90.9788 67.3693 90.2032 64.6512L90.1948 64.6489ZM52.0641 75.0621C51.5901 74.6838 51.5243 74.5912 51.3673 74.3454C51.1277 73.9756 51.0052 73.4496 51.0052 72.7758C51.0052 71.7191 51.3574 70.9534 52.0848 70.4404C52.0771 70.442 53.1261 69.5369 55.5916 69.5676C56.6889 69.5872 57.7838 69.6806 58.8687 69.847V75.3369H58.8702C58.8702 75.3369 57.3388 75.667 55.6084 75.7711C53.1506 75.9189 52.0633 75.0636 52.071 75.0659L52.0641 75.0621ZM56.8725 66.5631C56.3825 66.5271 55.747 66.5095 54.989 66.5095C53.9553 66.5095 52.9523 66.6381 52.0181 66.8908C51.0764 67.145 50.2265 67.5385 49.4991 68.0623C48.7697 68.5826 48.1697 69.2637 47.7457 70.053C47.3177 70.8493 47.0994 71.7834 47.0994 72.8401C47.0994 73.912 47.2855 74.8385 47.653 75.5965C48.0132 76.3484 48.5553 76.9984 49.2303 77.4877C49.9018 77.9762 50.731 78.3376 51.6881 78.552C52.6376 78.7687 53.7095 78.8782 54.8887 78.8782C56.1291 78.8782 57.3618 78.7741 58.5563 78.5727C59.5736 78.3972 60.5871 78.2001 61.596 77.9816C61.9987 77.8889 62.4459 77.7672 62.4459 77.7672C62.7445 77.6914 62.7215 77.3721 62.7215 77.3721L62.7146 66.3464C62.7146 63.9268 62.0684 62.1275 60.7928 61.0173C59.5218 59.907 57.6612 59.3481 55.2493 59.3481C54.3458 59.3481 52.8834 59.4706 52.0105 59.6459C52.0105 59.6459 49.3766 60.1574 48.2893 61.0088C48.2893 61.0088 48.0504 61.1559 48.1806 61.4889L49.0381 63.786C49.1446 64.0838 49.4347 63.982 49.4347 63.982C49.4347 63.982 49.5259 63.946 49.6331 63.8824C51.9531 62.6191 54.8933 62.6573 54.8933 62.6573C56.1949 62.6573 57.2056 62.9215 57.8794 63.4383C58.5386 63.9444 58.8748 64.7094 58.8748 66.3173V66.828C57.8411 66.6779 56.884 66.5914 56.884 66.5914L56.8725 66.5631ZM154.113 60.3381C154.131 60.2977 154.14 60.2543 154.14 60.2103C154.141 60.1663 154.132 60.1227 154.115 60.0822C154.098 60.0416 154.073 60.0048 154.042 59.9741C154.01 59.9433 153.973 59.9192 153.932 59.9032C153.726 59.8251 152.699 59.6084 151.911 59.5594C150.395 59.4645 149.552 59.7202 148.794 60.0602C148.045 60.3978 147.217 60.9407 146.758 61.5685L146.756 60.0985C146.756 59.8963 146.613 59.7332 146.409 59.7332H143.316C143.115 59.7332 142.97 59.8963 142.97 60.0985V78.0919C142.97 78.1891 143.009 78.2822 143.077 78.351C143.146 78.4197 143.239 78.4584 143.337 78.4586H146.506C146.604 78.4584 146.697 78.4197 146.765 78.3509C146.834 78.2822 146.872 78.189 146.872 78.0919V69.0569C146.872 67.8471 147.006 66.645 147.271 65.887C147.533 65.1374 147.889 64.5394 148.328 64.1106C148.747 63.6965 149.259 63.3892 149.821 63.2148C150.349 63.0633 150.895 62.9865 151.444 62.9866C152.076 62.9866 152.769 63.1489 152.769 63.1489C153.002 63.1749 153.131 63.0325 153.21 62.8227C153.417 62.2707 154.006 60.6176 154.121 60.2883" fill="white"/>
<path fill-rule="evenodd" clip-rule="evenodd" d="M124.507 52.0335C124.115 51.9151 123.717 51.8205 123.313 51.7502C122.771 51.6597 122.222 51.6171 121.672 51.6231C119.487 51.6231 117.765 52.2402 116.556 53.4592C115.356 54.669 114.539 56.512 114.129 58.9369L113.981 59.7554H111.24C111.24 59.7554 110.905 59.7416 110.834 60.1068L110.384 62.6182C110.353 62.8586 110.456 63.0087 110.778 63.0072H113.447L110.739 78.1239C110.527 79.3414 110.284 80.3429 110.015 81.1017C109.75 81.8505 109.491 82.4117 109.173 82.8191C108.864 83.2134 108.572 83.5036 108.067 83.6728C107.651 83.8129 107.171 83.8772 106.646 83.8772C106.354 83.8772 105.965 83.8282 105.678 83.7708C105.391 83.7141 105.241 83.6498 105.026 83.5595C105.026 83.5595 104.713 83.44 104.59 83.754C104.489 84.0105 103.778 85.9668 103.694 86.2087C103.608 86.4476 103.728 86.636 103.88 86.6903C104.235 86.8174 104.499 86.8986 104.983 87.0127C105.655 87.1712 106.222 87.1811 106.753 87.1811C107.864 87.1811 108.877 87.0249 109.717 86.7217C110.563 86.4162 111.298 85.8841 111.949 85.1636C112.653 84.3864 113.096 83.5725 113.519 82.4623C113.938 81.362 114.295 79.996 114.58 78.4042L117.301 63.0072H121.28C121.28 63.0072 121.615 63.0194 121.685 62.6557L122.135 60.1443C122.167 59.9039 122.064 59.7538 121.741 59.7554H117.879C117.899 59.6681 118.074 58.3098 118.517 57.0311C118.706 56.4852 119.062 56.0449 119.364 55.7424C119.646 55.4544 119.993 55.2385 120.376 55.1131C120.795 54.9833 121.233 54.9203 121.672 54.9262C122.036 54.9262 122.392 54.9699 122.664 55.0265C123.039 55.1062 123.184 55.1483 123.282 55.1774C123.676 55.2976 123.728 55.1812 123.806 54.9906L124.729 52.4546C124.824 52.1821 124.593 52.0672 124.507 52.0335ZM70.5469 78.1561C70.5469 78.3582 70.4029 78.5229 70.2008 78.5229H66.998C66.7951 78.5229 66.6511 78.3582 66.6511 78.1561V52.3773C66.6511 52.1759 66.7951 52.0128 66.998 52.0128H70.2008C70.4029 52.0128 70.5469 52.1759 70.5469 52.3773V78.1561Z" fill="white"/>
</g>
<defs>
<clipPath id="clip0_89_403">
<rect width="209.03" height="146.244" fill="white" transform="translate(0.313477 0.313477)"/>
</clipPath>
</defs>
</svg>
